<svg width="512" height="512" viewBox="0 0 512 512" fill="none" xmlns="http://www.w3.org/2000/svg">
<path d="M169.276 15.8658C170.402 15.8613 171.528 15.8569 172.688 15.8523C173.936 15.8524 175.184 15.8526 176.469 15.8528C177.786 15.8491 179.103 15.8455 180.46 15.8417C184.129 15.8316 187.797 15.8279 191.466 15.8253C195.418 15.8214 199.369 15.8118 203.321 15.8031C212.87 15.7833 222.419 15.7732 231.968 15.7643C236.462 15.76 240.956 15.7546 245.45 15.7494C260.382 15.7323 275.314 15.7179 290.247 15.7106C294.123 15.7087 298 15.7068 301.876 15.7048C303.322 15.7041 303.322 15.7041 304.796 15.7034C320.413 15.6951 336.029 15.6697 351.645 15.6372C367.668 15.6042 383.69 15.5862 399.713 15.583C408.713 15.5808 417.714 15.572 426.714 15.5465C434.377 15.5248 442.041 15.5167 449.704 15.5265C453.616 15.531 457.527 15.5291 461.438 15.5097C465.018 15.4922 468.597 15.493 472.177 15.5086C474.088 15.5121 475.999 15.4959 477.91 15.479C479.044 15.4876 480.177 15.4962 481.346 15.505C482.324 15.504 483.302 15.5031 484.31 15.502C487.8 16.1481 489.483 17.5427 492 20C493.23 23.6918 493.151 27.1062 493.154 30.9511C493.158 31.7702 493.162 32.5894 493.167 33.4333C493.18 36.1877 493.186 38.9421 493.193 41.6965C493.2 43.6675 493.209 45.6385 493.217 47.6095C493.244 54.0899 493.259 60.5703 493.273 67.0508C493.279 69.2804 493.284 71.51 493.289 73.7396C493.311 83.012 493.33 92.2845 493.341 101.557C493.357 114.853 493.39 128.15 493.447 141.446C493.486 150.791 493.506 160.136 493.511 169.482C493.514 175.066 493.527 180.649 493.559 186.233C493.589 191.485 493.595 196.737 493.584 201.99C493.583 203.917 493.592 205.845 493.609 207.773C493.632 210.405 493.624 213.036 493.608 215.668C493.622 216.43 493.636 217.193 493.65 217.979C493.592 221.878 493.04 224.436 490.649 227.458C487.296 230.675 485.082 231.125 480.617 231.123C479.716 231.125 478.815 231.127 477.886 231.129C476.895 231.126 475.904 231.123 474.882 231.12C473.83 231.121 472.778 231.122 471.694 231.123C468.152 231.124 464.61 231.119 461.067 231.114C458.535 231.113 456.002 231.113 453.47 231.114C448.009 231.114 442.548 231.111 437.087 231.106C429.192 231.098 421.296 231.095 413.4 231.094C400.591 231.092 387.781 231.085 374.971 231.075C362.526 231.066 350.082 231.059 337.637 231.055C336.487 231.055 336.487 231.055 335.313 231.054C331.466 231.053 327.619 231.052 323.772 231.05C291.848 231.04 259.924 231.022 228 231C229.707 227.35 231.723 225.097 234.648 222.297C235.571 221.398 236.494 220.5 237.445 219.574C238.905 218.164 240.367 216.757 241.836 215.356C248.995 208.504 254.985 202.558 256.09 192.241C256.082 189.898 256.082 189.898 255.252 187.329C253.991 182.8 253.157 179.541 255.483 175.288C257.903 172.493 260.455 169.996 263.175 167.492C264.143 166.553 265.108 165.611 266.069 164.666C268.596 162.198 271.161 159.775 273.737 157.359C276.358 154.889 278.943 152.381 281.529 149.875C286.066 145.481 290.636 141.123 295.234 136.792C297.611 134.379 297.973 133.424 298.187 130C298.325 126.884 298.325 126.884 296 125C292.35 124.505 290.616 124.567 287.57 126.708C286.784 127.508 285.998 128.307 285.188 129.131C284.287 130.032 283.387 130.933 282.459 131.861C281.496 132.855 280.533 133.849 279.57 134.844C278.571 135.854 277.571 136.863 276.569 137.87C273.942 140.521 271.333 143.188 268.727 145.86C266.064 148.586 263.382 151.294 260.703 154.004C255.452 159.319 250.22 164.654 245 170C243.906 169.678 242.812 169.355 241.685 169.023C238.36 168.1 235.617 167.642 232.187 167.562C231.253 167.523 230.318 167.483 229.355 167.441C220.538 168.909 214.127 174.154 208.129 180.453C207.095 181.504 207.095 181.504 206.041 182.577C203.869 184.79 201.715 187.018 199.562 189.25C197.382 191.493 195.198 193.732 193.009 195.966C191.654 197.35 190.305 198.74 188.962 200.136C188.354 200.76 187.746 201.385 187.119 202.028C186.587 202.579 186.056 203.131 185.508 203.699C182.509 206.286 179.441 206.118 175.676 206.098C174.647 206.094 173.619 206.091 172.56 206.088C171.488 206.079 170.417 206.071 169.312 206.062C168.229 206.058 167.145 206.053 166.029 206.049C163.353 206.037 160.676 206.021 158 206C157.906 182.096 157.836 158.192 157.792 134.287C157.772 123.188 157.744 112.089 157.698 100.99C157.658 91.3178 157.632 81.6452 157.623 71.9725C157.618 66.8498 157.606 61.7273 157.577 56.6047C157.55 51.7842 157.541 46.964 157.547 42.1434C157.546 40.3733 157.538 38.6031 157.523 36.8331C157.503 34.4172 157.508 32.0025 157.519 29.5866C157.507 28.8852 157.495 28.1839 157.483 27.4613C157.541 22.7192 158.655 20.3338 162 17C164.57 15.7148 166.397 15.871 169.276 15.8658ZM205 63C204.597 66.2209 204.372 68.1336 206.312 70.8125C210.472 73.7394 215.165 73.1452 220.021 73.1404C221.422 73.1449 221.422 73.1449 222.851 73.1494C225.995 73.1581 229.139 73.1596 232.282 73.1611C234.531 73.1657 236.779 73.1708 239.028 73.1762C245.146 73.1893 251.263 73.1957 257.381 73.2002C261.2 73.2031 265.02 73.2072 268.839 73.2117C279.413 73.2238 289.987 73.2342 300.561 73.2376C301.237 73.2378 301.914 73.238 302.611 73.2382C303.29 73.2384 303.968 73.2387 304.667 73.2389C306.042 73.2393 307.416 73.2398 308.791 73.2402C309.814 73.2406 309.814 73.2406 310.857 73.2409C321.908 73.2448 332.959 73.2623 344.01 73.2856C355.354 73.3093 366.698 73.3215 378.043 73.3229C384.413 73.324 390.783 73.3299 397.153 73.3477C403.143 73.3642 409.133 73.3664 415.123 73.3576C417.324 73.3568 419.524 73.3612 421.725 73.3711C424.725 73.3837 427.725 73.3779 430.725 73.3675C431.599 73.3755 432.474 73.3836 433.375 73.3919C438.524 73.3498 442.176 72.8241 446 69C446.45 64.8957 446.45 64.8958 444.736 61.3283C442.627 59.7151 441.6 59.6243 438.969 59.6225C438.146 59.6146 437.323 59.6068 436.476 59.5988C435.572 59.6055 434.669 59.6121 433.738 59.619C432.298 59.612 432.298 59.612 430.828 59.6049C427.597 59.5928 424.366 59.6024 421.134 59.6118C418.824 59.6077 416.513 59.6024 414.202 59.5959C407.915 59.5822 401.628 59.5875 395.341 59.597C388.772 59.6046 382.203 59.5976 375.634 59.5929C363.894 59.5864 352.154 59.5964 340.413 59.6116C329.763 59.625 319.114 59.6227 308.464 59.6089C296.104 59.5928 283.743 59.5868 271.383 59.5957C264.837 59.6004 258.292 59.601 251.746 59.5911C245.594 59.5825 239.441 59.5884 233.289 59.6058C231.026 59.6098 228.763 59.6086 226.5 59.602C223.421 59.5938 220.341 59.604 217.262 59.619C215.906 59.609 215.906 59.609 214.524 59.5988C213.701 59.6066 212.878 59.6144 212.031 59.6225C210.964 59.6232 210.964 59.6232 209.876 59.6239C207.405 60.1191 206.515 61.0173 205 63ZM205 104C204.25 106.5 204.25 106.5 205 109C207.852 112.105 210.088 113.255 214.209 113.503C215.918 113.525 217.628 113.525 219.337 113.508C220.281 113.514 221.225 113.52 222.198 113.527C225.363 113.543 228.528 113.53 231.693 113.518C233.962 113.523 236.23 113.53 238.498 113.539C244.662 113.557 250.824 113.55 256.988 113.537C263.433 113.527 269.878 113.537 276.323 113.543C287.841 113.551 299.359 113.538 310.877 113.518C321.319 113.5 331.761 113.503 342.203 113.521C354.331 113.543 366.458 113.551 378.586 113.539C385.005 113.533 391.424 113.532 397.844 113.545C403.878 113.557 409.912 113.549 415.947 113.526C418.164 113.52 420.38 113.522 422.597 113.531C425.619 113.542 428.64 113.528 431.662 113.508C432.543 113.517 433.424 113.526 434.332 113.535C438.37 113.483 440.529 113.276 444.083 111.195C446.397 109.031 446.397 109.031 446 105.375C445.317 101.749 445.317 101.749 442 100C440.098 99.6997 440.098 99.6997 438.003 99.7427C436.78 99.733 436.78 99.733 435.533 99.7232C434.638 99.7263 433.743 99.7294 432.82 99.7326C431.869 99.728 430.918 99.7235 429.938 99.7188C426.737 99.7061 423.535 99.7078 420.334 99.7095C418.044 99.7035 415.755 99.6967 413.465 99.6891C407.236 99.6714 401.007 99.6667 394.778 99.6655C389.584 99.6636 384.39 99.6562 379.195 99.6491C367.645 99.6338 356.095 99.6278 344.545 99.6291C343.852 99.6292 343.159 99.6293 342.445 99.6294C341.751 99.6295 341.057 99.6295 340.342 99.6296C329.089 99.6304 317.837 99.6113 306.585 99.5831C295.036 99.5544 283.488 99.5409 271.939 99.5423C265.453 99.5428 258.967 99.5371 252.482 99.5159C246.384 99.4966 240.287 99.4964 234.189 99.511C231.947 99.5131 229.706 99.5083 227.465 99.4963C224.411 99.4809 221.359 99.49 218.306 99.5055C217.413 99.4952 216.52 99.4849 215.6 99.4743C210.73 99.5291 207.951 99.6851 205 104ZM319 144C318.333 146.5 318.333 146.5 319 149C320.99 151.458 322.205 152.829 325.339 153.503C326.642 153.506 326.642 153.506 327.972 153.508C329.473 153.525 329.473 153.525 331.005 153.542C332.097 153.534 333.189 153.526 334.314 153.518C336.046 153.528 336.046 153.528 337.814 153.539C341.636 153.556 345.458 153.545 349.281 153.531C351.934 153.534 354.586 153.538 357.239 153.543C362.801 153.55 368.362 153.541 373.924 153.521C380.352 153.5 386.78 153.507 393.208 153.529C398.729 153.547 404.25 153.549 409.771 153.539C413.068 153.533 416.364 153.534 419.661 153.545C423.336 153.555 427.01 153.54 430.685 153.518C432.323 153.53 432.323 153.53 433.995 153.542C434.996 153.531 435.997 153.52 437.028 153.508C437.897 153.506 438.765 153.505 439.66 153.503C442.826 152.822 444.049 151.54 446 149C446.089 145.373 446.089 145.373 445 142C441.763 139.842 440.882 139.747 437.148 139.733C435.649 139.72 435.649 139.72 434.119 139.707C432.476 139.708 432.476 139.708 430.799 139.709C429.067 139.699 429.067 139.699 427.3 139.689C423.472 139.67 419.644 139.666 415.816 139.664C413.832 139.659 411.849 139.654 409.865 139.649C403.627 139.633 397.389 139.628 391.151 139.629C384.715 139.631 378.28 139.609 371.845 139.578C366.32 139.552 360.794 139.541 355.269 139.542C351.969 139.543 348.669 139.535 345.369 139.516C341.689 139.496 338.01 139.502 334.33 139.514C333.236 139.503 332.143 139.492 331.016 139.48C330.014 139.488 329.011 139.497 327.978 139.506C327.108 139.504 326.238 139.503 325.342 139.502C322.203 140.169 320.991 141.539 319 144Z" fill="#003C6B"/>
<path d="M284.875 400.375C286.272 401.557 287.647 402.767 289 404C289.807 404.715 290.614 405.431 291.445 406.168C307.394 421.117 315.145 440.575 316.031 462.242C315.972 469.311 313.635 473.697 309 479C292.401 492.08 268.877 496.085 248.172 496.203C247.349 496.21 246.526 496.217 245.678 496.224C243.035 496.242 240.393 496.248 237.75 496.25C236.399 496.251 236.399 496.251 235.021 496.252C222.147 496.237 209.576 496.046 197 493C196.264 492.828 195.528 492.657 194.769 492.48C181.776 489.352 167.549 484.847 160 473C155.093 463.071 158.073 450.155 161 440C168.333 418.51 181.743 402.946 201.687 392.25C228.774 379.44 260.771 382.456 284.875 400.375Z" fill="#003C6B"/>
<path d="M462.812 400.813C478.716 413.388 489.953 431.679 492.715 451.953C494.324 469.144 494.324 469.144 489 476C481.151 485.025 469.829 488.722 458.625 491.75C457.896 491.949 457.166 492.147 456.415 492.352C442.487 495.878 428.588 496.374 414.312 496.313C412.988 496.31 412.988 496.31 411.638 496.307C388.12 496.225 362.043 494.39 342.5 479.563C337.725 474.669 335.021 469.535 334.98 462.637C335.988 443.424 341.401 426.773 354 412C354.598 411.205 355.196 410.409 355.812 409.59C382.135 378.426 431.573 377.243 462.812 400.813Z" fill="#003C6B"/>
<path d="M237 180C240.081 181.54 241.386 182.689 242.844 185.801C244.262 190.15 244.082 192.696 242.177 196.974C239.733 201.181 236.14 204.448 232.711 207.855C231.893 208.679 231.075 209.504 230.233 210.353C228.504 212.088 226.771 213.818 225.033 215.544C222.389 218.174 219.77 220.827 217.152 223.482C215.465 225.171 213.776 226.858 212.086 228.543C210.923 229.726 210.923 229.726 209.736 230.933C202.113 238.429 194.456 242.081 183.691 242.158C182.656 242.168 181.622 242.178 180.557 242.189C178.899 242.2 178.899 242.2 177.207 242.211C174.863 242.239 172.518 242.268 170.174 242.297C166.48 242.338 162.787 242.375 159.093 242.401C155.527 242.429 151.961 242.475 148.395 242.523C146.727 242.528 146.727 242.528 145.027 242.533C144.002 242.55 142.977 242.566 141.921 242.583C141.017 242.592 140.113 242.6 139.181 242.608C138.461 242.737 137.742 242.867 137 243C134.944 246.085 134.747 246.745 134.722 250.233C134.71 251.095 134.699 251.958 134.688 252.846C134.686 253.789 134.683 254.732 134.681 255.704C134.671 256.699 134.661 257.694 134.651 258.72C134.62 262.015 134.603 265.31 134.586 268.605C134.567 270.888 134.548 273.171 134.527 275.453C134.476 281.465 134.436 287.477 134.399 293.489C134.359 299.622 134.308 305.756 134.258 311.889C134.161 323.926 134.077 335.963 134 348C131.36 348 128.72 348 126 348C125.991 347.345 125.981 346.69 125.972 346.016C125.918 343.01 125.834 340.005 125.75 337C125.736 335.97 125.722 334.94 125.707 333.879C125.46 326.107 124.325 320.325 118.625 314.625C111.842 310.426 105.133 310.662 97.3828 310.586C96.1705 310.567 94.9582 310.547 93.7092 310.527C89.8479 310.468 85.9865 310.421 82.125 310.375C79.5026 310.337 76.8802 310.298 74.2578 310.258C67.8387 310.162 61.4194 310.077 55 310C54.9941 309.205 54.9883 308.41 54.9822 307.59C54.9243 300.101 54.8523 292.611 54.7643 285.122C54.7195 281.271 54.6803 277.421 54.6536 273.57C54.6276 269.855 54.5872 266.139 54.5368 262.424C54.5201 261.006 54.5086 259.588 54.5024 258.17C54.4928 256.185 54.463 254.2 54.4324 252.216C54.4157 250.52 54.4157 250.52 54.3987 248.79C54.211 246.008 54.211 246.008 52.6995 244.1C50.829 242.654 50.829 242.654 47.375 243.187C46.2613 243.456 45.1475 243.724 44 244C42.8584 246.283 42.8636 247.575 42.8418 250.113C42.8271 251.404 42.8271 251.404 42.8121 252.722C42.8064 253.668 42.8006 254.615 42.7947 255.59C42.7798 257.083 42.7798 257.083 42.7647 258.606C42.733 261.906 42.7083 265.207 42.6836 268.508C42.663 270.792 42.642 273.076 42.6206 275.36C42.5653 281.38 42.516 287.4 42.4678 293.421C42.4176 299.56 42.3619 305.7 42.3066 311.84C42.199 323.893 42.0976 335.947 42 348C40.2488 348.032 38.4975 348.055 36.7461 348.074C35.7708 348.088 34.7956 348.102 33.7908 348.116C28.5766 347.899 25.2738 346.341 21.625 342.5C19.4155 339.101 18.8744 336.545 18.8528 332.579C18.8457 331.675 18.8385 330.771 18.8311 329.84C18.8285 328.85 18.8258 327.86 18.823 326.841C18.8164 325.796 18.8099 324.752 18.8031 323.676C18.7833 320.215 18.7717 316.754 18.7617 313.293C18.7556 311.521 18.7556 311.521 18.7494 309.713C18.7285 303.462 18.7142 297.212 18.7048 290.961C18.6938 284.501 18.6594 278.041 18.6197 271.582C18.5935 266.617 18.5852 261.653 18.5816 256.688C18.5767 254.307 18.565 251.925 18.5465 249.544C18.5222 246.211 18.5231 242.88 18.53 239.548C18.5172 238.564 18.5044 237.58 18.4912 236.567C18.5446 229.546 19.9987 226.481 24.5625 221.187C27.7347 218.567 31.1445 218.873 35.0573 218.869C36.3244 218.865 37.5916 218.861 38.8972 218.856C40.3045 218.857 41.7118 218.858 43.1191 218.858C44.5993 218.855 46.0794 218.852 47.5595 218.848C50.7499 218.84 53.9403 218.835 57.1308 218.831C62.1832 218.825 67.2356 218.809 72.288 218.79C74.0189 218.784 75.7498 218.777 77.4808 218.771C78.7812 218.766 78.7812 218.766 80.108 218.761C91.8698 218.719 103.632 218.686 115.394 218.674C123.327 218.666 131.261 218.643 139.194 218.605C143.389 218.585 147.584 218.572 151.779 218.577C155.732 218.582 159.685 218.568 163.638 218.54C165.081 218.534 166.525 218.533 167.968 218.541C178.454 218.588 187.993 217.82 196.139 210.64C197.433 209.338 198.71 208.017 199.969 206.68C201 205.63 201 205.63 202.052 204.559C204.219 202.347 206.36 200.112 208.5 197.875C210.674 195.636 212.853 193.402 215.033 191.17C216.382 189.786 217.725 188.397 219.063 187.003C219.668 186.375 220.273 185.748 220.896 185.101C221.425 184.549 221.954 183.997 222.498 183.428C226.967 179.178 231.147 179.271 237 180Z" fill="#003C6B"/>
<path d="M261.312 300.25C268.01 306.653 272.834 313.669 273.336 323.172C273.506 331.767 273.53 339.407 269 347C268.576 347.714 268.152 348.428 267.715 349.164C262.301 357.217 253.851 361.963 244.687 364.688C233.712 365.964 223.173 364.453 214.062 357.75C206.051 350.856 200.848 342.329 199.762 331.66C199.457 321.016 201.988 311.117 209.015 302.934C223.567 288.754 245.646 286.808 261.312 300.25Z" fill="#003C6B"/>
<path d="M436 298C437.052 298.722 438.103 299.444 439.187 300.187C446.598 307.598 450.913 317.342 451.437 327.812C451.045 338.2 447.439 347.703 440 355C431.716 362.237 422.5 365.7 411.464 365.281C401.287 364.12 391.715 359.703 385.125 351.75C378.57 342.521 375.985 332.71 377.625 321.5C379.907 310.856 385.172 302.457 394.351 296.465C407.695 289.2 423.386 289.069 436 298Z" fill="#003C6B"/>
<path d="M55.0001 323C62.6173 322.924 70.2343 322.871 77.8517 322.835C80.4435 322.82 83.0353 322.8 85.6271 322.774C89.3505 322.737 93.0735 322.72 96.797 322.707C98.5378 322.684 98.5378 322.684 100.314 322.66C101.395 322.66 102.475 322.66 103.589 322.659C105.015 322.649 105.015 322.649 106.469 322.639C109.533 323.076 110.875 323.752 113 326C113.495 328.277 113.495 328.277 113.486 330.975C113.495 332.491 113.495 332.491 113.505 334.039C113.49 335.129 113.476 336.22 113.461 337.344C113.46 338.464 113.459 339.585 113.458 340.74C113.452 343.11 113.436 345.481 113.412 347.851C113.375 351.486 113.371 355.119 113.371 358.754C113.361 361.055 113.35 363.355 113.336 365.656C113.334 366.747 113.332 367.838 113.329 368.961C113.317 369.972 113.304 370.984 113.291 372.025C113.279 373.361 113.279 373.361 113.268 374.723C113 377 113 377 111 380C108.002 380.374 108.002 380.374 104.104 380.372C103.395 380.376 102.685 380.38 101.955 380.383C99.6051 380.391 97.2561 380.378 94.9064 380.363C93.2774 380.363 91.6483 380.363 90.0193 380.365C86.6028 380.365 83.1866 380.354 79.7702 380.336C75.3849 380.313 71.0001 380.313 66.6148 380.32C63.2503 380.323 59.8858 380.316 56.5213 380.306C54.9041 380.303 53.2869 380.301 51.6698 380.303C49.4119 380.303 47.1544 380.291 44.8966 380.275C43.6103 380.27 42.3239 380.265 40.9985 380.261C38.0001 380 38.0001 380 36.0001 378C35.855 375.091 35.8138 372.28 35.8751 369.375C35.8842 368.573 35.8932 367.771 35.9025 366.945C35.9261 364.963 35.9619 362.982 36.0001 361C37.4465 360.961 37.4465 360.961 38.922 360.922C40.1853 360.865 41.4486 360.808 42.7501 360.75C44.6296 360.68 44.6296 360.68 46.547 360.609C50.6055 359.893 51.563 359.26 54.0001 356C54.4181 353.333 54.6048 351.059 54.6095 348.391C54.626 347.664 54.6426 346.937 54.6596 346.188C54.7081 343.875 54.7295 341.563 54.7501 339.25C54.7783 337.678 54.8082 336.107 54.84 334.535C54.9138 330.69 54.9634 326.845 55.0001 323Z" fill="#003C6B"/>
<path d="M111 141C119.218 146.688 123.595 153.383 125.684 163.074C127.239 172.543 124.277 181.252 118.809 188.957C112.443 196.147 104.197 199.293 94.832 199.957C85.6284 200.097 78.1096 196.376 71.1758 190.437C65.4954 184.485 62.8486 176.634 62.5 168.5C62.8921 159.634 65.9328 152.127 72.0781 145.719C83.2557 135.722 97.6974 134.005 111 141Z" fill="#003C6B"/>
</svg>
