<svg width="512" height="512" viewBox="0 0 512 512" fill="none" xmlns="http://www.w3.org/2000/svg">
<g clip-path="url(#clip0_73_7)">
<path d="M225.977 126.68C233.354 131.493 238.684 137.15 241.551 145.629C242.207 149.093 242.122 152.536 242.098 156.047C242.096 156.818 242.095 157.589 242.093 158.384C242.088 160.839 242.075 163.295 242.063 165.75C242.058 167.418 242.053 169.086 242.049 170.754C242.038 174.836 242.021 178.918 242 183C242.569 182.997 243.138 182.994 243.724 182.992C257.597 182.925 271.47 182.876 285.343 182.845C292.052 182.829 298.761 182.808 305.47 182.774C311.947 182.741 318.424 182.723 324.902 182.715C327.37 182.71 329.838 182.699 332.307 182.683C335.77 182.661 339.233 182.658 342.697 182.659C343.712 182.649 344.727 182.638 345.773 182.627C356.228 182.672 363.187 185.196 370.762 192.477C376.576 199.032 379.232 206.25 379 215C378.206 224.17 374.826 230.631 368.063 236.812C361.909 241.89 356.144 244.129 348.185 244.12C347.244 244.122 346.303 244.123 345.334 244.124C344.314 244.121 343.294 244.117 342.243 244.113C340.618 244.114 340.618 244.114 338.96 244.114C335.384 244.113 331.807 244.105 328.231 244.098C325.749 244.096 323.268 244.094 320.786 244.093C314.258 244.09 307.73 244.08 301.201 244.069C293.367 244.056 285.533 244.052 277.698 244.046C265.799 244.036 253.899 244.017 242 244C242 263.8 242 283.6 242 304C248.483 302.759 254.966 301.517 261.645 300.238C294.366 295.479 332.334 290.917 360.619 311.421C378.313 324.76 393.773 340.806 408.813 357C409.401 357.631 409.989 358.263 410.594 358.914C464.604 416.973 464.604 416.973 465.438 433.937C465.113 442.545 461.928 450.056 456 456.277C448.425 462.802 441.165 464.383 431.387 464.273C421.581 463.482 414.549 458.242 408.245 450.977C406.485 448.755 404.774 446.502 403.073 444.235C393.753 432.136 383.944 420.493 373.75 409.125C373.292 408.613 372.834 408.101 372.362 407.573C347.893 380.328 325.377 362.074 287.799 360.016C277.205 359.512 266.651 359.737 256.063 360.25C255.366 360.284 254.67 360.317 253.952 360.352C241.471 360.972 229.005 361.824 216.59 363.271C215.458 363.401 214.326 363.531 213.161 363.665C211.071 363.914 208.983 364.18 206.898 364.47C199.35 365.392 193.893 364.399 187.688 359.687C182.295 354.295 180.897 348.801 180.862 341.391C180.863 340.645 180.865 339.9 180.866 339.132C180.864 338.334 180.862 337.536 180.86 336.713C180.853 334.036 180.854 331.358 180.855 328.681C180.852 326.762 180.848 324.843 180.845 322.925C180.836 317.71 180.834 312.495 180.833 307.28C180.832 302.926 180.828 298.572 180.825 294.219C180.817 283.945 180.814 273.671 180.815 263.397C180.815 252.802 180.805 242.208 180.789 231.613C180.776 222.515 180.771 213.418 180.771 204.32C180.772 198.888 180.769 193.455 180.758 188.022C180.748 182.91 180.748 177.798 180.756 172.686C180.757 170.813 180.754 168.939 180.748 167.065C180.741 164.502 180.745 161.939 180.753 159.376C180.748 158.639 180.743 157.903 180.737 157.144C180.798 147.881 183.376 139.32 189.531 132.238C199.118 123.262 214.149 120.392 225.977 126.68Z" fill="#003C6B"/>
<path d="M152 193C154.525 222.465 154.525 222.465 150.655 229.415C147.122 232.861 142.773 234.445 138.189 236.089C134.533 237.61 131.657 239.995 128.625 242.5C128.049 242.963 127.473 243.427 126.879 243.905C100.01 265.791 83.1121 298.745 79.281 333.078C76.7115 368.908 86.0683 404.84 109.769 432.457C110.873 433.716 110.873 433.716 112 435C112.684 435.829 113.369 436.658 114.074 437.512C135.904 463.216 169.727 477.614 202.773 480.593C238.091 483.239 273.367 471.344 300.199 448.301C311.708 438.121 320.803 426.923 329 414C332.567 415.514 334.837 417.605 337.547 420.352C338.391 421.202 339.235 422.053 340.105 422.93C340.978 423.819 341.851 424.709 342.75 425.625C343.638 426.522 344.526 427.419 345.441 428.344C347.632 430.558 349.818 432.777 352 435C348.12 445.113 340.374 453.238 333 461C332.535 461.498 332.07 461.995 331.591 462.508C309.314 486.231 280.59 501.612 249 509C247.725 509.32 246.45 509.639 245.136 509.969C206.032 518.696 160.48 510.224 126.706 489.098C102.844 473.745 83.5299 454.39 68.9997 430C68.6584 429.433 68.3172 428.865 67.9655 428.281C58.3032 411.975 52.1577 393.647 48.9997 375C48.884 374.322 48.7683 373.645 48.6491 372.946C41.7168 330.139 52.4496 285.126 77.7732 249.969C92.1578 230.789 125.083 193 152 193Z" fill="#003C6B"/>
<path d="M242.113 8.57811C243.047 9.28194 243.047 9.28194 244 9.99999C244.866 10.5775 245.733 11.155 246.625 11.75C254.752 19.4494 260.91 30.7697 261.238 42.125C261.558 56.1312 259.601 66.5875 251 78C250.423 78.8662 249.845 79.7325 249.25 80.625C241.551 88.7521 230.23 94.9096 218.875 95.2383C202.392 95.6147 190.619 92.217 178.313 80.875C168.669 70.8946 165.585 58.7362 165.634 45.2778C165.909 32.2245 170.911 22.2393 179.75 12.8125C196.72 -3.38294 223.086 -5.22276 242.113 8.57811Z" fill="#003C6B"/>
</g>
<defs>
<clipPath id="clip0_73_7">
<rect width="512" height="512" fill="white"/>
</clipPath>
</defs>
</svg>
