<svg width="512" height="512" viewBox="0 0 512 512" fill="none" xmlns="http://www.w3.org/2000/svg">
<g clip-path="url(#clip0_73_2)">
<path d="M150 357C152.254 358.969 152.254 358.969 154.562 361.5C179.59 387.49 217.69 402.279 253.417 403.288C294.209 403.743 330.843 386.852 360 359C360.696 358.066 360.696 358.066 361.406 357.113C363.638 355.555 365.284 356.119 367.868 356.541C372.089 357.449 376.152 358.851 380.243 360.215C381.249 360.546 382.255 360.876 383.291 361.216C386.606 362.307 389.919 363.407 393.23 364.508C395.546 365.274 397.861 366.041 400.177 366.807C405.029 368.415 409.88 370.028 414.73 371.644C420.917 373.705 427.111 375.748 433.306 377.787C438.092 379.364 442.874 380.955 447.655 382.548C449.935 383.306 452.217 384.06 454.5 384.809C476.604 392.069 494.374 400.295 505.836 421.629C520.152 450.789 512 473.102 512 512C343.04 512 174.08 512 0 512C0 427.509 0 427.509 14 410C14.6246 409.138 14.6246 409.138 15.2617 408.258C21.5034 400.123 30.532 394.66 40.0461 391.199C40.7269 390.95 41.4076 390.702 42.109 390.446C51.8135 386.935 61.6033 383.662 71.3867 380.379C72.944 379.856 72.944 379.856 74.5328 379.322C80.0034 377.485 85.4752 375.651 90.948 373.821C96.5914 371.932 102.23 370.029 107.868 368.124C112.222 366.655 116.58 365.197 120.939 363.741C123.021 363.044 125.102 362.343 127.182 361.637C130.075 360.656 132.974 359.691 135.874 358.729C136.728 358.435 137.583 358.142 138.463 357.84C145.866 355.415 145.866 355.415 150 357Z" fill="#003C6B"/>
<path d="M135.138 105.739C136.215 105.736 137.292 105.732 138.402 105.728C141.99 105.717 145.576 105.721 149.163 105.725C151.745 105.721 154.326 105.716 156.907 105.71C163.178 105.697 169.448 105.695 175.718 105.698C180.818 105.699 185.918 105.698 191.019 105.693C192.11 105.693 192.11 105.693 193.223 105.692C194.702 105.69 196.18 105.689 197.659 105.688C211.505 105.677 225.352 105.679 239.198 105.685C251.844 105.691 264.489 105.679 277.135 105.66C290.143 105.641 303.151 105.633 316.159 105.636C323.452 105.638 330.746 105.636 338.039 105.622C344.901 105.609 351.761 105.611 358.623 105.624C361.134 105.626 363.646 105.624 366.158 105.616C400.35 105.511 400.35 105.511 414.508 118.258C423.017 126.992 427.13 137.328 427.177 149.408C427.184 150.148 427.19 150.889 427.197 151.652C427.217 154.1 427.228 156.548 427.238 158.996C427.242 159.837 427.246 160.677 427.251 161.544C427.271 166 427.286 170.456 427.295 174.913C427.306 179.485 427.341 184.057 427.38 188.63C427.407 192.171 427.415 195.711 427.418 199.252C427.423 200.936 427.435 202.619 427.453 204.303C427.612 219.545 425.599 232.255 415 244C407.646 251.002 398.582 256.112 388.259 256.134C387.304 256.139 386.348 256.143 385.364 256.148C384.317 256.148 383.27 256.147 382.191 256.147C381.076 256.151 379.962 256.155 378.814 256.158C375.065 256.169 371.317 256.173 367.568 256.177C364.886 256.183 362.204 256.19 359.521 256.197C351.462 256.217 343.403 256.227 335.344 256.236C331.546 256.24 327.749 256.245 323.951 256.251C311.323 256.268 298.694 256.282 286.066 256.289C282.79 256.291 279.513 256.293 276.237 256.295C275.016 256.296 275.016 256.296 273.77 256.297C260.586 256.305 247.402 256.33 234.217 256.363C220.674 256.396 207.131 256.414 193.587 256.417C185.986 256.419 178.385 256.428 170.784 256.454C164.31 256.475 157.835 256.483 151.36 256.474C148.059 256.469 144.759 256.473 141.458 256.49C137.871 256.508 134.285 256.501 130.698 256.488C129.151 256.504 129.151 256.504 127.573 256.521C118.074 256.437 109.581 253.858 102 248C101.45 247.604 100.899 247.209 100.332 246.801C91.5929 240.068 86.9948 230.663 85 220C84.5634 214.093 84.5524 208.206 84.5664 202.285C84.5619 200.581 84.5566 198.877 84.5506 197.172C84.5417 193.616 84.544 190.06 84.554 186.504C84.5655 181.978 84.5452 177.452 84.5161 172.925C84.4976 169.41 84.498 165.896 84.5037 162.38C84.5039 160.713 84.4979 159.045 84.4854 157.378C84.3904 142.63 86.5184 129.986 97.0352 118.844C108.184 108.304 120.182 105.682 135.138 105.739ZM128 150C128 163.86 128 177.72 128 192C141.86 192 155.72 192 170 192C170 178.14 170 164.28 170 150C156.14 150 142.28 150 128 150Z" fill="#003C6B"/>
<path d="M290 2.99992C290.72 3.18265 291.44 3.36537 292.182 3.55363C321.512 11.1175 349.352 29.3894 365.027 55.726C367.416 59.7823 369.738 63.8714 372 67.9999C372.406 68.7347 372.812 69.4695 373.23 70.2265C374 71.9999 374 71.9999 374 74.9999C296.12 74.9999 218.24 74.9999 138 74.9999C142.152 54.239 161.566 34.2526 178.408 22.5546C192.013 13.5336 206.203 7.06491 222 2.99992C223.87 2.49139 223.87 2.49139 225.777 1.97258C245.52 -2.44861 270.489 -2.29747 290 2.99992Z" fill="#003C6B"/>
<path d="M154 288C221.32 288 288.64 288 358 288C352.299 302.253 346.601 312.54 337 324C336.447 324.688 335.894 325.377 335.324 326.086C319.37 345.353 292.835 359.306 268 362C236.753 363.519 209.679 355.914 186 335C185.319 334.462 184.639 333.925 183.938 333.371C169.566 321.81 160.67 304.674 154 288Z" fill="#003C6B"/>
</g>
<defs>
<clipPath id="clip0_73_2">
<rect width="512" height="512" fill="white"/>
</clipPath>
</defs>
</svg>
